<svg id="Layer_1" data-name="Layer 1" xmlns="http://www.w3.org/2000/svg" viewBox="0 0 1206.35 633.13"><defs><style>.cls-1,.cls-3{fill:#3d5467;}.cls-2,.cls-4{fill:#8aa29e;}.cls-3,.cls-4{font-size:568.66px;font-family:AvenirNext-Regular, Avenir Next;}</style></defs><title>logo</title><path class="cls-1" d="M181.33,352.53a108.3,108.3,0,0,1,93,7l19.53-25.64a140.31,140.31,0,0,0-125.7-10.59Z"/><path class="cls-1" d="M143,378a108.44,108.44,0,0,1,27.15-20.35L157,328.39a140.56,140.56,0,0,0-37.85,28.23Z"/><path class="cls-1" d="M284.67,366.29a108.07,108.07,0,0,1,10.71,164.94L316.9,555a140.1,140.1,0,0,0-12.82-214.15Z"/><path class="cls-1" d="M137.35,522.27a108.07,108.07,0,0,1-2.43-135L111,365.9a140.08,140.08,0,0,0,2.6,177.89Z"/><path class="cls-1" d="M286,539.24a108.07,108.07,0,0,1-140.29-8L122,552.83A140.08,140.08,0,0,0,307.59,563Z"/><path class="cls-1" d="M36.48,396.23a191.73,191.73,0,0,1,34.46-64.51L49.73,313.39a219.67,219.67,0,0,0-40.3,75.48Z"/><path class="cls-1" d="M254.38,601.38A152.32,152.32,0,0,1,113.25,560.6L92.52,579.47a180.34,180.34,0,0,0,169,49Z"/><path class="cls-1" d="M273.39,625.31a179.72,179.72,0,0,0,62.12-33.46l-19-20.64a151.8,151.8,0,0,1-50.2,27Z"/><path class="cls-1" d="M75.74,407a151.7,151.7,0,0,1,25.4-48L80,340.67a179.68,179.68,0,0,0-31.29,59Z"/><path class="cls-1" d="M68.66,453a152.53,152.53,0,0,1,3.84-34.07l-27.06-7.36A180.4,180.4,0,0,0,84.17,570.42l20.73-18.87A151.5,151.5,0,0,1,68.66,453Z"/><path class="cls-1" d="M142.25,290.85a179.74,179.74,0,0,0-17.67,9.85l16,23.08q6.25-3.89,12.89-7.18Z"/><path class="cls-1" d="M88,331.32l21.18,18.38a153.1,153.1,0,0,1,21.2-19L114.4,307.64A181.2,181.2,0,0,0,88,331.32Z"/><path class="cls-1" d="M55,551a192.56,192.56,0,0,1-21.8-142.94L6.19,400.75A220.73,220.73,0,0,0,31.67,566.56Z"/><path class="cls-1" d="M61.7,561.42,38.34,576.91a221.13,221.13,0,0,0,16.32,21l20.9-18.67A193,193,0,0,1,61.7,561.42Z"/><path class="cls-1" d="M346.53.64a108.32,108.32,0,0,0-23.88,4.43V340.29a152.08,152.08,0,0,1,2.47,224l19.55,21.24a180,180,0,0,0,43.68-63.25V5.86A107.75,107.75,0,0,0,346.53.64Z"/><path class="cls-2" d="M1025,352.17a108.3,108.3,0,0,0-93,7l-19.53-25.64a140.31,140.31,0,0,1,125.7-10.59Z"/><path class="cls-2" d="M1063.36,377.64a108.44,108.44,0,0,0-27.15-20.35L1049.39,328a140.56,140.56,0,0,1,37.85,28.23Z"/><path class="cls-2" d="M921.67,365.93A108.07,108.07,0,0,0,911,530.87L889.45,554.6a140.1,140.1,0,0,1,12.82-214.15Z"/><path class="cls-2" d="M1069,521.92a108.07,108.07,0,0,0,2.43-135l23.91-21.4a140.08,140.08,0,0,1-2.6,177.89Z"/><path class="cls-2" d="M920.32,538.88a108.07,108.07,0,0,0,140.29-8l23.77,21.55a140.08,140.08,0,0,1-185.62,10.2Z"/><path class="cls-2" d="M1169.86,395.87a191.73,191.73,0,0,0-34.46-64.51L1156.61,313a219.67,219.67,0,0,1,40.3,75.48Z"/><path class="cls-2" d="M952,601a152.32,152.32,0,0,0,141.13-40.78l20.73,18.87a180.34,180.34,0,0,1-169,49Z"/><path class="cls-2" d="M933,625a179.72,179.72,0,0,1-62.12-33.46l19-20.64a151.8,151.8,0,0,0,50.2,27Z"/><path class="cls-2" d="M1130.61,406.69a151.7,151.7,0,0,0-25.4-48l21.19-18.38a179.68,179.68,0,0,1,31.29,59Z"/><path class="cls-2" d="M1137.68,452.65a152.53,152.53,0,0,0-3.84-34.07l27.06-7.36a180.4,180.4,0,0,1-38.73,158.85l-20.73-18.87A151.5,151.5,0,0,0,1137.68,452.65Z"/><path class="cls-2" d="M1064.1,290.5a179.74,179.74,0,0,1,17.67,9.85l-16,23.08q-6.25-3.89-12.89-7.18Z"/><path class="cls-2" d="M1118.38,331l-21.18,18.38a153.1,153.1,0,0,0-21.2-19l15.94-23.06A181.2,181.2,0,0,1,1118.38,331Z"/><path class="cls-2" d="M1151.3,550.69a192.56,192.56,0,0,0,21.8-142.94l27.06-7.36a220.73,220.73,0,0,1-25.48,165.81Z"/><path class="cls-2" d="M1144.65,561.06,1168,576.56a221.13,221.13,0,0,1-16.32,21l-20.9-18.67A193,193,0,0,0,1144.65,561.06Z"/><path class="cls-2" d="M859.82.28A108.32,108.32,0,0,1,883.7,4.71V339.93a152.08,152.08,0,0,0-2.47,224l-19.55,21.24A180,180,0,0,1,818,521.9V5.5A107.75,107.75,0,0,1,859.82.28Z"/><text class="cls-3" transform="translate(393.72 521.13)">2</text><text class="cls-4" transform="matrix(-1, 0, 0, 1, 813.48, 521.15)">2</text></svg>