<svg id="Layer_1" data-name="Layer 1" xmlns="http://www.w3.org/2000/svg" viewBox="0 0 1206.35 633.13"><defs><style>.cls-1{fill:#3d5467;}.cls-2{fill:#8aa29e;}</style></defs><title>Artboard 1</title><path class="cls-1" d="M181.33,352.53a108.3,108.3,0,0,1,93,7l19.53-25.64a140.31,140.31,0,0,0-125.7-10.59Z"/><path class="cls-1" d="M143,378a108.44,108.44,0,0,1,27.15-20.35L157,328.39a140.56,140.56,0,0,0-37.85,28.23Z"/><path class="cls-1" d="M284.67,366.29a108.07,108.07,0,0,1,10.71,164.94L316.9,555a140.1,140.1,0,0,0-12.82-214.15Z"/><path class="cls-1" d="M137.35,522.27a108.07,108.07,0,0,1-2.43-135L111,365.9a140.08,140.08,0,0,0,2.6,177.89Z"/><path class="cls-1" d="M286,539.24a108.07,108.07,0,0,1-140.29-8L122,552.83A140.08,140.08,0,0,0,307.59,563Z"/><path class="cls-1" d="M36.48,396.23a191.73,191.73,0,0,1,34.46-64.51L49.73,313.39a219.67,219.67,0,0,0-40.3,75.48Z"/><path class="cls-1" d="M254.38,601.38A152.32,152.32,0,0,1,113.25,560.6L92.52,579.47a180.34,180.34,0,0,0,169,49Z"/><path class="cls-1" d="M273.39,625.31a179.72,179.72,0,0,0,62.12-33.46l-19-20.64a151.8,151.8,0,0,1-50.2,27Z"/><path class="cls-1" d="M75.74,407a151.7,151.7,0,0,1,25.4-48L80,340.67a179.68,179.68,0,0,0-31.29,59Z"/><path class="cls-1" d="M68.66,453a152.53,152.53,0,0,1,3.84-34.07l-27.06-7.36A180.4,180.4,0,0,0,84.17,570.42l20.73-18.87A151.5,151.5,0,0,1,68.66,453Z"/><path class="cls-1" d="M142.25,290.85a179.74,179.74,0,0,0-17.67,9.85l16,23.08q6.25-3.89,12.89-7.18Z"/><path class="cls-1" d="M88,331.32l21.18,18.38a153.1,153.1,0,0,1,21.2-19L114.4,307.64A181.2,181.2,0,0,0,88,331.32Z"/><path class="cls-1" d="M55,551a192.56,192.56,0,0,1-21.8-142.94L6.19,400.75A220.73,220.73,0,0,0,31.67,566.56Z"/><path class="cls-1" d="M61.7,561.42,38.34,576.91a221.13,221.13,0,0,0,16.32,21l20.9-18.67A193,193,0,0,1,61.7,561.42Z"/><path class="cls-1" d="M346.53.64a108.32,108.32,0,0,0-23.88,4.43V340.29a152.08,152.08,0,0,1,2.47,224l19.55,21.24a180,180,0,0,0,43.68-63.25V5.86A107.75,107.75,0,0,0,346.53.64Z"/><path class="cls-2" d="M1025,352.17a108.3,108.3,0,0,0-93,7l-19.53-25.64a140.31,140.31,0,0,1,125.7-10.59Z"/><path class="cls-2" d="M1063.36,377.64a108.44,108.44,0,0,0-27.15-20.35L1049.39,328a140.56,140.56,0,0,1,37.85,28.23Z"/><path class="cls-2" d="M921.67,365.93A108.07,108.07,0,0,0,911,530.87L889.45,554.6a140.1,140.1,0,0,1,12.82-214.15Z"/><path class="cls-2" d="M1069,521.92a108.07,108.07,0,0,0,2.43-135l23.91-21.4a140.08,140.08,0,0,1-2.6,177.89Z"/><path class="cls-2" d="M920.32,538.88a108.07,108.07,0,0,0,140.29-8l23.77,21.55a140.08,140.08,0,0,1-185.62,10.2Z"/><path class="cls-2" d="M1169.86,395.87a191.73,191.73,0,0,0-34.46-64.51L1156.61,313a219.67,219.67,0,0,1,40.3,75.48Z"/><path class="cls-2" d="M952,601a152.32,152.32,0,0,0,141.13-40.78l20.73,18.87a180.34,180.34,0,0,1-169,49Z"/><path class="cls-2" d="M933,625a179.72,179.72,0,0,1-62.12-33.46l19-20.64a151.8,151.8,0,0,0,50.2,27Z"/><path class="cls-2" d="M1130.61,406.69a151.7,151.7,0,0,0-25.4-48l21.19-18.38a179.68,179.68,0,0,1,31.29,59Z"/><path class="cls-2" d="M1137.68,452.65a152.53,152.53,0,0,0-3.84-34.07l27.06-7.36a180.4,180.4,0,0,1-38.73,158.85l-20.73-18.87A151.5,151.5,0,0,0,1137.68,452.65Z"/><path class="cls-2" d="M1064.1,290.5a179.74,179.74,0,0,1,17.67,9.85l-16,23.08q-6.25-3.89-12.89-7.18Z"/><path class="cls-2" d="M1118.38,331l-21.18,18.38a153.1,153.1,0,0,0-21.2-19l15.94-23.06A181.2,181.2,0,0,1,1118.38,331Z"/><path class="cls-2" d="M1151.3,550.69a192.56,192.56,0,0,0,21.8-142.94l27.06-7.36a220.73,220.73,0,0,1-25.48,165.81Z"/><path class="cls-2" d="M1144.65,561.06,1168,576.56a221.13,221.13,0,0,1-16.32,21l-20.9-18.67A193,193,0,0,0,1144.65,561.06Z"/><path class="cls-2" d="M859.82.28A108.32,108.32,0,0,1,883.7,4.71V339.93a152.08,152.08,0,0,0-2.47,224l-19.55,21.24A180,180,0,0,1,818,521.9V5.5A107.75,107.75,0,0,1,859.82.28Z"/><path class="cls-2" d="M602.25,292.26a171,171,0,0,1-15.59-21.89,111,111,0,0,1-10.77-24.17,88.92,88.92,0,0,1-4-26.44,78.53,78.53,0,0,1,6.24-31.84,69.94,69.94,0,0,1,17.3-24.17,77.58,77.58,0,0,1,8.47-6.61,81.47,81.47,0,0,0-17.12-8.77A86,86,0,0,0,560,143a104.61,104.61,0,0,0-19.13,28.09q-9.78,20.76-9.79,48.05A114.82,114.82,0,0,0,536.47,255a155.77,155.77,0,0,0,14.18,31.28,182.13,182.13,0,0,0,20.7,28.15q3.24,3.64,6.57,7.25l9.73-9.83q8.24-8.24,16.25-17.68C603.34,293.54,602.79,292.91,602.25,292.26Z"/><path class="cls-2" d="M640.94,136.43c2.45,2.09,4.77,4.31,7,6.63,1.11,0,2.23-.07,3.35-.07q32.32,0,54.44,20.19t28.35,51.46l40.26-8a116.52,116.52,0,0,0-15-39.24,120.26,120.26,0,0,0-27.22-31.28,125.79,125.79,0,0,0-36.58-20.47,129.1,129.1,0,0,0-44.23-7.39,148.49,148.49,0,0,0-46.22,7.11l-1.16.41A110.89,110.89,0,0,1,640.94,136.43Z"/><path class="cls-1" d="M657.29,286.28A155.53,155.53,0,0,0,671.51,255a114.52,114.52,0,0,0,5.4-35.83q0-27.3-9.82-48.05a104.61,104.61,0,0,0-19.16-28.06,85.6,85.6,0,0,0-27,5.33,81.15,81.15,0,0,0-17.05,8.75,77.81,77.81,0,0,1,8.47,6.59,69.93,69.93,0,0,1,17.34,24.17A78.34,78.34,0,0,1,636,219.75a88.67,88.67,0,0,1-4,26.44,110.77,110.77,0,0,1-10.8,24.17,171,171,0,0,1-15.64,21.89c-.55.66-1.11,1.29-1.66,1.94q8,9.43,16.22,17.69l9.76,9.89q3.38-3.66,6.68-7.34A182.18,182.18,0,0,0,657.29,286.28Z"/><path class="cls-1" d="M501.76,163.16Q523.94,143,556.35,143c1.22,0,2.43,0,3.64.08,2.21-2.31,4.52-4.52,7-6.6a110.53,110.53,0,0,1,37-20.63c-.41-.14-.8-.29-1.21-.43a149.28,149.28,0,0,0-46.35-7.11A129.79,129.79,0,0,0,512,115.68a126.23,126.23,0,0,0-36.68,20.47A120.36,120.36,0,0,0,448,167.43,116.31,116.31,0,0,0,433,206.67l40.37,8Q479.58,183.36,501.76,163.16Z"/><path class="cls-1" d="M528.24,484.74H466.51l137.37-136.3-7.6-7.56q-9.49-9.52-18.38-19.19L422.72,478.49v42.65H528.24V484.76h0Z"/><path class="cls-2" d="M629.87,321.77q-8.88,9.62-18.34,19.1l-7.63,7.57,137,136.31H680.15v36.39H784.56V478.5Z"/><rect class="cls-1" x="523.37" y="484.76" width="80.55" height="36.38"/><rect class="cls-2" x="603.92" y="484.75" width="77.01" height="36.38"/></svg>